<svg width="40" height="40" viewBox="0 0 40 40" fill="none" xmlns="http://www.w3.org/2000/svg">
<path d="M16.8532 7.5H13.3332C10.1898 7.5 8.61984 7.5 7.64317 8.47667C6.6665 9.45333 6.6665 11.0233 6.6665 14.1667V26.6667C6.6665 31.38 6.6665 33.7383 8.1315 35.2017C9.59484 36.6667 11.9532 36.6667 16.6665 36.6667H23.3332C28.0465 36.6667 30.4048 36.6667 31.8682 35.2017C33.3332 33.7383 33.3332 31.38 33.3332 26.6667V22.4067C33.3332 18.3983 33.3332 16.3933 32.3382 14.7817C31.3415 13.1717 29.5482 12.275 25.9632 10.4817L22.8148 8.90833C21.4148 8.20833 20.7132 7.85667 19.9582 7.67833C19.2032 7.5 18.4198 7.5 16.8498 7.5" stroke="black" stroke-width="2" stroke-linecap="round" stroke-linejoin="round"/>
<path d="M20.8333 13.3333L27.5 16.6666M10 7.49992V6.24992C10 5.07992 10 4.49492 10.2817 4.07325C10.403 3.89195 10.5587 3.73623 10.74 3.61492C11.1617 3.33325 11.7467 3.33325 12.9167 3.33325C14.0867 3.33325 14.6717 3.33325 15.0933 3.61492C15.2746 3.73623 15.4304 3.89195 15.5517 4.07325C15.8333 4.49492 15.8333 5.07992 15.8333 6.24992V7.49992M20 29.9999C21.8417 29.9999 23.3333 28.5999 23.3333 26.8749C23.3333 24.7916 20 21.6666 20 21.6666C20 21.6666 16.6667 24.7916 16.6667 26.8749C16.6667 28.5999 18.1583 29.9999 20 29.9999Z" stroke="black" stroke-width="2" stroke-linecap="round" stroke-linejoin="round"/>
</svg>
