<svg width="40" height="40" viewBox="0 0 40 40" fill="none" xmlns="http://www.w3.org/2000/svg">
<path d="M21.25 1.875C21.25 1.37772 21.0525 0.900805 20.7008 0.549175C20.3492 0.197544 19.8723 0 19.375 0C18.8777 0 18.4008 0.197544 18.0492 0.549175C17.6975 0.900805 17.5 1.37772 17.5 1.875V14.85L10.9775 8.325C10.8045 8.146 10.5975 8.00326 10.3687 7.9051C10.1399 7.80694 9.89382 7.75534 9.64486 7.75329C9.3959 7.75125 9.14902 7.7988 8.91864 7.89319C8.68825 7.98758 8.47897 8.1269 8.30301 8.30303C8.12704 8.47916 7.98792 8.68857 7.89375 8.91905C7.79958 9.14952 7.75226 9.39644 7.75454 9.6454C7.75682 9.89436 7.80865 10.1404 7.90703 10.3691C8.0054 10.5978 8.14834 10.8046 8.3275 10.9775L14.8475 17.5H1.875C1.37772 17.5 0.900805 17.6975 0.549175 18.0492C0.197544 18.4008 0 18.8777 0 19.375C0 19.8723 0.197544 20.3492 0.549175 20.7008C0.900805 21.0525 1.37772 21.25 1.875 21.25H14.85L8.325 27.7725C8.146 27.9455 8.00326 28.1525 7.9051 28.3813C7.80694 28.6101 7.75534 28.8562 7.75329 29.1051C7.75125 29.3541 7.7988 29.601 7.89319 29.8314C7.98758 30.0617 8.1269 30.271 8.30303 30.447C8.47916 30.623 8.68857 30.7621 8.91905 30.8563C9.14952 30.9504 9.39644 30.9977 9.6454 30.9955C9.89436 30.9932 10.1404 30.9413 10.3691 30.843C10.5978 30.7446 10.8046 30.6017 10.9775 30.4225L17.5 23.9025V36.875C17.5 37.3723 17.6975 37.8492 18.0492 38.2008C18.4008 38.5525 18.8777 38.75 19.375 38.75C19.8723 38.75 20.3492 38.5525 20.7008 38.2008C21.0525 37.8492 21.25 37.3723 21.25 36.875V23.9L27.7725 30.425C27.9455 30.604 28.1525 30.7467 28.3813 30.8449C28.6101 30.9431 28.8562 30.9947 29.1051 30.9967C29.3541 30.9988 29.601 30.9512 29.8314 30.8568C30.0617 30.7624 30.271 30.6231 30.447 30.447C30.623 30.2708 30.7621 30.0614 30.8563 29.831C30.9504 29.6005 30.9977 29.3536 30.9955 29.1046C30.9932 28.8556 30.9413 28.6096 30.843 28.3809C30.7446 28.1522 30.6017 27.9454 30.4225 27.7725L23.9025 21.25H36.875C37.3723 21.25 37.8492 21.0525 38.2008 20.7008C38.5525 20.3492 38.75 19.8723 38.75 19.375C38.75 18.8777 38.5525 18.4008 38.2008 18.0492C37.8492 17.6975 37.3723 17.5 36.875 17.5H23.9L30.425 10.9775C30.7664 10.6237 30.9552 10.15 30.9507 9.65837C30.9461 9.16675 30.7487 8.69657 30.4009 8.34909C30.0531 8.00161 29.5828 7.80464 29.0911 7.80061C28.5995 7.79657 28.126 7.98578 27.7725 8.3275L21.25 14.8475V1.875Z" fill="black"/>
</svg>
