<svg width="40" height="40" viewBox="0 0 40 40" fill="none" xmlns="http://www.w3.org/2000/svg">
<path d="M17.5001 12.5001C17.5 10.8751 17.896 9.27453 18.6537 7.83699C19.4114 6.39944 20.508 5.16821 21.8486 4.24985C23.1892 3.33148 24.7335 2.75366 26.3476 2.56639C27.9618 2.37911 29.5973 2.58804 31.1126 3.17507C31.3062 3.25032 31.478 3.37263 31.6124 3.53094C31.7469 3.68926 31.8398 3.87858 31.8827 4.08181C31.9257 4.28504 31.9173 4.49577 31.8583 4.69494C31.7994 4.89411 31.6917 5.07545 31.5451 5.22257L26.7676 10.0001L30.0001 13.2326L34.7751 8.45757C34.922 8.31031 35.1033 8.20204 35.3027 8.14258C35.502 8.08312 35.713 8.07434 35.9166 8.11704C36.1202 8.15975 36.3099 8.25258 36.4685 8.38713C36.6272 8.52168 36.7497 8.69369 36.8251 8.88757C37.498 10.6229 37.6732 12.5117 37.331 14.3412C36.9888 16.1707 36.1429 17.8685 34.8883 19.2433C33.6337 20.6182 32.0203 21.6157 30.2296 22.1235C28.439 22.6312 26.5421 22.6292 24.7526 22.1176L12.2401 34.8001C11.3147 35.7158 10.0667 36.2314 8.76478 36.2359C7.4629 36.2404 6.21135 35.7333 5.27969 34.824C4.34804 33.9146 3.81084 32.6757 3.78379 31.3741C3.75674 30.0725 4.24201 28.8123 5.13508 27.8651L17.7601 14.7801C17.5862 14.0326 17.499 13.2675 17.5001 12.5001ZM27.5001 5.00007C26.3216 4.99962 25.1596 5.2769 24.1083 5.80941C23.057 6.34192 22.146 7.11468 21.4491 8.06504C20.7522 9.0154 20.2891 10.1166 20.0973 11.2794C19.9055 12.4421 19.9904 13.6337 20.3451 14.7576C20.4129 14.9722 20.4216 15.2012 20.3701 15.4203C20.3186 15.6394 20.2089 15.8406 20.0526 16.0026L6.93258 29.6001C6.50192 30.0723 6.27155 30.6934 6.29006 31.3323C6.30856 31.9712 6.5745 32.5779 7.03176 33.0245C7.48903 33.4711 8.10188 33.7226 8.74102 33.7259C9.38016 33.7293 9.99563 33.4843 10.4576 33.0426L23.5201 19.8101C23.69 19.6384 23.9061 19.5196 24.1421 19.4681C24.3782 19.4167 24.6241 19.4347 24.8501 19.5201C26.0409 19.9694 27.3264 20.1084 28.5857 19.9238C29.845 19.7392 31.0366 19.2372 32.0484 18.465C33.0601 17.6928 33.8587 16.6759 34.369 15.5099C34.8792 14.3439 35.0844 13.0672 34.9651 11.8001L30.8826 15.8851C30.6482 16.1194 30.3303 16.2511 29.9988 16.2511C29.6674 16.2511 29.3495 16.1194 29.1151 15.8851L24.1151 10.8851C23.8807 10.6507 23.7491 10.3328 23.7491 10.0013C23.7491 9.66986 23.8807 9.35198 24.1151 9.11757L28.2001 5.03257C27.9674 5.01083 27.7338 4.99999 27.5001 5.00007Z" fill="black"/>
</svg>
