<svg width="40" height="40" viewBox="0 0 40 40" fill="none" xmlns="http://www.w3.org/2000/svg">
<path d="M17.9998 13C17.9994 11.4956 18.3761 10.0151 19.0955 8.69382C19.8149 7.37256 20.854 6.25272 22.1179 5.43668C23.3817 4.62063 24.83 4.13442 26.3302 4.0225C27.8305 3.91058 29.3348 4.17652 30.7058 4.796C30.8532 4.86257 30.9822 4.96389 31.0819 5.09128C31.1815 5.21867 31.2488 5.36833 31.2779 5.52742C31.307 5.68651 31.2971 5.85028 31.249 6.0047C31.2009 6.15912 31.1161 6.29956 31.0018 6.414L26.4158 11L28.9998 13.586L33.5858 9C33.7001 8.88523 33.8405 8.79993 33.9951 8.75144C34.1496 8.70296 34.3136 8.69274 34.473 8.72166C34.6323 8.75058 34.7823 8.81778 34.9099 8.91748C35.0376 9.01718 35.1391 9.14639 35.2058 9.294C35.7158 10.426 35.9998 11.682 35.9998 13C35.9998 15.324 35.1198 17.442 33.6738 19.04C32.9999 18.7235 32.2956 18.4762 31.5718 18.302C32.5213 17.4862 33.2339 16.4301 33.6351 15.2443C34.0362 14.0585 34.111 12.7867 33.8518 11.562L29.7078 15.708C29.5202 15.8955 29.2659 16.0008 29.0008 16.0008C28.7356 16.0008 28.4813 15.8955 28.2938 15.708L24.2938 11.708C24.2006 11.6151 24.1268 11.5048 24.0763 11.3833C24.0259 11.2618 24 11.1315 24 11C24 10.8685 24.0259 10.7382 24.0763 10.6167C24.1268 10.4952 24.2006 10.3849 24.2938 10.292L28.4398 6.148C27.2722 5.90249 26.0613 5.95947 24.922 6.31353C23.7826 6.66759 22.7527 7.30699 21.9299 8.17101C21.1072 9.03504 20.5189 10.095 20.221 11.2503C19.9231 12.4056 19.9254 13.6179 20.2278 14.772C20.2706 14.9379 20.2702 15.112 20.2264 15.2777C20.1826 15.4433 20.097 15.5949 19.9778 15.718L6.75377 29.426C6.25092 29.9411 5.97327 30.6348 5.9819 31.3545C5.99052 32.0743 6.28472 32.7612 6.79977 33.264C7.31482 33.7669 8.00854 34.0445 8.7283 34.0359C9.44807 34.0273 10.1349 33.7331 10.6378 33.218L18.7518 24.998C18.3036 26.1478 18.0521 27.3648 18.0078 28.598L12.0618 34.622C11.1884 35.5168 9.99535 36.0281 8.74505 36.0433C7.49474 36.0585 6.28961 35.5764 5.39477 34.703C4.49993 33.8296 3.98868 32.6366 3.97349 31.3863C3.9583 30.136 4.44042 28.9308 5.31377 28.036L18.1658 14.72C18.0554 14.1533 17.9998 13.5773 17.9998 13ZM21.2698 27.84C21.7862 27.7079 22.2711 27.4739 22.6958 27.1517C23.1205 26.8296 23.4766 26.4258 23.7431 25.9641C24.0095 25.5023 24.181 24.992 24.2474 24.4631C24.3138 23.9341 24.2738 23.3973 24.1298 22.884L23.8198 21.77C24.3291 21.3793 24.8764 21.048 25.4618 20.776L26.1378 21.492C26.5116 21.8886 26.9625 22.2047 27.4628 22.4207C27.9631 22.6368 28.5023 22.7484 29.0473 22.7486C29.5923 22.7488 30.1316 22.6376 30.6321 22.4218C31.1326 22.2061 31.5837 21.8904 31.9578 21.494L32.6058 20.806C33.2031 21.0887 33.7598 21.4347 34.2758 21.844L34.0238 22.688C33.8678 23.2101 33.82 23.7585 33.8836 24.2997C33.9471 24.8408 34.1205 25.3633 34.3932 25.8351C34.6658 26.3068 35.032 26.7179 35.4692 27.043C35.9065 27.3682 36.4055 27.6006 36.9358 27.726L37.6338 27.89C37.714 28.5653 37.7207 29.2473 37.6538 29.924L36.7338 30.16C36.2171 30.2919 35.7321 30.5257 35.3071 30.8478C34.8822 31.1699 34.5259 31.5736 34.2592 32.0354C33.9926 32.4971 33.8209 33.0075 33.7544 33.5366C33.6879 34.0656 33.7278 34.6026 33.8718 35.116L34.1838 36.228C33.6731 36.6213 33.1251 36.9533 32.5398 37.224L31.8638 36.508C31.4901 36.1116 31.0395 35.7956 30.5394 35.5796C30.0393 35.3635 29.5004 35.2519 28.9556 35.2515C28.4109 35.2511 27.8718 35.362 27.3714 35.5774C26.8711 35.7928 26.4199 36.1081 26.0458 36.504L25.3958 37.194C24.8013 36.9136 24.241 36.566 23.7258 36.158L23.9798 35.312C24.1361 34.7898 24.1841 34.2412 24.1207 33.6998C24.0573 33.1584 23.884 32.6356 23.6113 32.1637C23.3386 31.6917 22.9723 31.2804 22.5349 30.9551C22.0975 30.6298 21.5983 30.3974 21.0678 30.272L20.3678 30.108C20.2877 29.4334 20.281 28.7521 20.3478 28.076L21.2698 27.84ZM26.9998 29C26.9998 29.5304 27.2105 30.0391 27.5856 30.4142C27.9606 30.7893 28.4693 31 28.9998 31C29.5302 31 30.0389 30.7893 30.414 30.4142C30.7891 30.0391 30.9998 29.5304 30.9998 29C30.9998 28.4696 30.7891 27.9609 30.414 27.5858C30.0389 27.2107 29.5302 27 28.9998 27C28.4693 27 27.9606 27.2107 27.5856 27.5858C27.2105 27.9609 26.9998 28.4696 26.9998 29Z" fill="black"/>
</svg>
